<?xml version="1.0" standalone="no"?>
<!DOCTYPE svg PUBLIC "-//W3C//DTD SVG 20010904//EN"
 "http://www.w3.org/TR/2001/REC-SVG-20010904/DTD/svg10.dtd">
<svg version="1.0" xmlns="http://www.w3.org/2000/svg"
 width="514.000000pt" height="514.000000pt" viewBox="0 0 514.000000 514.000000"
 preserveAspectRatio="xMidYMid meet">
<metadata>
Created by potrace 1.14, written by Peter Selinger 2001-2017
</metadata>
<g transform="translate(0.000000,514.000000) scale(0.100000,-0.100000)"
fill="#000000" stroke="none">
<path d="M2379 5126 c-2 -2 -35 -7 -74 -11 -226 -21 -549 -103 -730 -185 -206
-92 -501 -264 -565 -330 -3 -3 -36 -30 -75 -62 -149 -120 -317 -299 -434 -463
-39 -55 -75 -105 -80 -111 -5 -6 -17 -26 -26 -45 -10 -19 -21 -36 -24 -39 -15
-13 -140 -260 -169 -335 -10 -27 -23 -59 -27 -70 -5 -11 -9 -22 -10 -25 0 -3
-15 -48 -32 -100 -44 -131 -81 -293 -99 -430 -3 -25 -8 -56 -11 -70 -9 -46
-11 -444 -2 -520 50 -440 153 -741 384 -1128 79 -131 228 -315 370 -456 90
-89 239 -214 325 -271 25 -16 50 -33 55 -38 81 -62 321 -188 465 -245 160 -63
396 -129 530 -147 25 -3 52 -8 60 -10 106 -27 564 -27 725 1 145 24 169 29
246 48 35 9 73 18 84 21 25 5 209 68 250 85 17 7 46 19 65 28 401 168 794 480
1049 832 33 47 65 90 69 95 17 22 116 190 112 190 -3 0 4 14 16 30 22 32 83
158 116 240 76 188 141 434 163 615 4 25 9 59 12 75 13 71 11 453 -3 565 -91
732 -468 1374 -1049 1787 -363 258 -739 405 -1195 468 -50 7 -485 16 -491 11z"/>
</g>
</svg>
