<?xml version="1.0" standalone="no"?>
<!DOCTYPE svg PUBLIC "-//W3C//DTD SVG 20010904//EN"
 "http://www.w3.org/TR/2001/REC-SVG-20010904/DTD/svg10.dtd">
<svg version="1.0" xmlns="http://www.w3.org/2000/svg"
 width="512.000000pt" height="512.000000pt" viewBox="0 0 512.000000 512.000000"
 preserveAspectRatio="xMidYMid meet">
<metadata>
Created by potrace 1.14, written by Peter Selinger 2001-2017
</metadata>
<g transform="translate(0.000000,512.000000) scale(0.100000,-0.100000)"
fill="#000000" stroke="none">
<path d="M2310 5079 c-586 -65 -1098 -304 -1514 -709 -340 -331 -575 -739
-689 -1195 -58 -233 -72 -349 -72 -615 0 -270 14 -385 75 -626 48 -189 93
-312 180 -489 120 -244 268 -453 464 -653 329 -337 738 -572 1191 -685 233
-58 349 -72 615 -72 270 0 385 14 626 75 189 48 312 93 489 180 325 159 644
416 865 695 222 280 387 615 473 960 58 233 72 349 72 615 0 270 -14 385 -75
626 -48 189 -93 312 -180 489 -200 407 -506 752 -895 1008 -139 91 -353 198
-510 255 -131 48 -359 105 -505 127 -126 19 -489 28 -610 14z m-479 -817 c64
-31 124 -95 151 -159 l22 -53 560 2 559 3 15 44 c34 101 166 191 281 191 116
0 229 -72 277 -175 47 -99 28 -224 -45 -307 -17 -20 -31 -39 -31 -42 0 -4 124
-216 276 -471 l275 -464 31 11 c45 16 156 5 208 -22 133 -66 196 -206 155
-345 -22 -75 -105 -163 -179 -188 -54 -18 -160 -23 -199 -8 -23 9 -33 -7 -293
-441 -148 -248 -273 -459 -278 -469 -7 -15 0 -28 31 -62 53 -57 77 -130 71
-211 -6 -76 -26 -117 -86 -179 -59 -60 -127 -87 -221 -87 -123 0 -240 80 -276
191 l-17 49 -559 0 c-496 0 -559 -2 -559 -15 0 -32 -51 -114 -95 -153 -56 -49
-119 -72 -200 -72 -83 0 -145 23 -204 76 -119 107 -129 284 -22 406 l31 36
-277 465 -276 465 -82 -6 c-115 -7 -172 14 -246 87 -85 86 -108 175 -73 291
22 73 107 159 183 185 49 16 160 18 209 4 8 -3 117 170 287 456 151 253 275
464 275 469 0 4 -11 17 -25 27 -13 11 -38 49 -56 84 -29 59 -31 71 -27 137 3
47 12 88 26 114 27 53 106 124 163 146 63 25 179 20 240 -10z"/>
<path d="M1611 4168 c-182 -90 -116 -358 88 -358 87 0 146 37 182 115 75 161
-106 324 -270 243z"/>
<path d="M3358 4180 c-93 -28 -153 -136 -128 -230 45 -168 293 -193 369 -38
75 155 -73 319 -241 268z"/>
<path d="M1989 3913 c-12 -40 -37 -81 -74 -123 l-22 -25 154 -257 155 -258
357 0 358 0 153 257 c99 167 149 261 144 268 -40 54 -68 100 -79 132 l-13 38
-560 3 -560 2 -13 -37z"/>
<path d="M1316 3252 l-276 -464 35 -41 c20 -23 43 -63 53 -89 l17 -48 317 0
317 0 171 287 171 286 -69 116 c-37 64 -108 184 -157 266 l-90 150 -106 0
-107 0 -276 -463z"/>
<path d="M3161 3460 l-153 -260 177 -300 178 -300 306 0 307 0 12 44 c6 24 29
66 52 94 l40 52 -275 462 c-240 402 -279 463 -298 461 -58 -7 -125 -7 -157 0
l-35 7 -154 -260z"/>
<path d="M2213 3148 c-18 -23 -324 -540 -321 -543 2 -1 148 0 325 3 l321 5
159 265 c87 146 160 269 161 274 2 4 -140 8 -316 8 -244 0 -322 -3 -329 -12z"/>
<path d="M2787 2842 c-87 -147 -159 -271 -159 -275 -1 -13 314 -557 322 -557
15 0 315 515 315 540 0 22 -302 559 -315 559 -3 1 -76 -120 -163 -267z"/>
<path d="M749 2727 c-78 -41 -120 -130 -98 -209 26 -98 105 -154 209 -146 200
14 248 267 69 359 -53 26 -125 25 -180 -4z"/>
<path d="M4195 2732 c-190 -89 -129 -363 81 -362 156 1 243 148 170 288 -40
77 -165 114 -251 74z"/>
<path d="M2133 2513 c-117 -2 -213 -7 -213 -11 0 -4 64 -124 143 -267 l144
-260 310 0 c171 0 314 3 318 6 3 4 -62 127 -146 273 l-152 266 -96 -2 c-53 -2
-192 -4 -308 -5z"/>
<path d="M1128 2462 c-10 -26 -33 -66 -52 -88 l-35 -41 275 -464 276 -464 112
0 112 0 84 140 c46 77 116 194 156 261 l71 121 -171 289 -172 289 -320 3 -319
2 -17 -48z"/>
<path d="M3186 2205 c-97 -162 -176 -298 -176 -301 0 -4 64 -121 143 -260 109
-195 145 -252 157 -247 8 4 61 8 118 8 l103 1 93 156 c51 85 176 293 276 462
l182 306 -34 39 c-20 21 -43 59 -53 84 l-18 47 -307 0 -307 0 -177 -295z"/>
<path d="M2214 1869 c-5 -8 -77 -128 -161 -268 l-152 -255 34 -37 c18 -21 42
-60 52 -88 l18 -51 557 0 556 0 12 35 c7 20 27 58 45 85 l33 49 -150 265 -150
266 -283 0 c-155 0 -309 3 -342 6 -46 5 -62 3 -69 -7z"/>
<path d="M1639 1300 c-114 -34 -165 -179 -100 -282 77 -122 276 -115 341 12
79 156 -69 322 -241 270z"/>
<path d="M3335 1291 c-112 -51 -149 -193 -74 -284 104 -127 308 -89 349 65 42
154 -125 288 -275 219z"/>
</g>
</svg>
